<svg width="56" height="56" viewBox="0 0 56 56" fill="none" xmlns="http://www.w3.org/2000/svg">
<circle cx="28" cy="28" r="28" fill="#010101"/>
<path d="M34.0494 27.3193C34.0399 25.5643 34.8337 24.2396 36.4405 23.2641C35.5414 21.9777 34.1833 21.2699 32.39 21.1312C30.6923 20.9973 28.8369 22.1211 28.1578 22.1211C27.4405 22.1211 25.7954 21.1791 24.5043 21.1791C21.8358 21.2221 19 23.3071 19 27.5489C19 28.8018 19.2295 30.0962 19.6886 31.432C20.3007 33.187 22.5101 37.491 24.8151 37.4192C26.0202 37.3905 26.8714 36.5632 28.44 36.5632C29.9607 36.5632 30.7497 37.4192 32.0935 37.4192C34.4176 37.3858 36.4166 33.474 37 31.7141C33.882 30.246 34.0494 27.4102 34.0494 27.3193ZM31.3427 19.4671C32.6482 17.9176 32.5287 16.5069 32.4904 16C31.3379 16.067 30.0037 16.7843 29.2434 17.669C28.4065 18.6158 27.9139 19.7875 28.0191 21.1073C29.2673 21.203 30.4054 20.5622 31.3427 19.4671Z" fill="white"/>
</svg>
