<svg width="33" height="32" viewBox="0 0 33 32" fill="none" xmlns="http://www.w3.org/2000/svg">
<rect x="0.5" width="32" height="32" rx="16" fill="#FFF0CC"/>
<mask id="mask0_40190_2271" style="mask-type:alpha" maskUnits="userSpaceOnUse" x="4" y="4" width="25" height="24">
<rect x="4.5" y="4" width="24" height="24" fill="#D9D9D9"/>
</mask>
<g mask="url(#mask0_40190_2271)">
<path d="M14.0497 19.15L22.5247 10.675C22.7247 10.475 22.9581 10.375 23.2247 10.375C23.4914 10.375 23.7247 10.475 23.9247 10.675C24.1247 10.875 24.2247 11.1125 24.2247 11.3875C24.2247 11.6625 24.1247 11.9 23.9247 12.1L14.7497 21.3C14.5497 21.5 14.3164 21.6 14.0497 21.6C13.7831 21.6 13.5497 21.5 13.3497 21.3L9.04972 17C8.84972 16.8 8.75389 16.5625 8.76222 16.2875C8.77055 16.0125 8.87472 15.775 9.07472 15.575C9.27472 15.375 9.51222 15.275 9.78722 15.275C10.0622 15.275 10.2997 15.375 10.4997 15.575L14.0497 19.15Z" fill="#FFB200"/>
</g>
</svg>
