<svg width="58" height="58" viewBox="0 0 58 58" fill="none" xmlns="http://www.w3.org/2000/svg">
<path d="M29 57C44.464 57 57 44.464 57 29C57 13.536 44.464 1 29 1C13.536 1 1 13.536 1 29C1 44.464 13.536 57 29 57Z" fill="white" stroke="#E6E6E6"/>
<path d="M39.9157 28.8723C39.9157 27.9887 39.8447 27.3439 39.6909 26.6753H29.6953V30.6633H35.5625C35.4443 31.6544 34.8055 33.147 33.386 34.1499L33.3661 34.2834L36.5265 36.7548L36.7455 36.7768C38.7564 34.9022 39.9157 32.1439 39.9157 28.8723Z" fill="#4285F4"/>
<path d="M29.6252 39.2724C32.513 39.2724 34.9373 38.3243 36.7081 36.6888L33.333 34.0815C32.4298 34.7096 31.2176 35.1481 29.6252 35.1481C26.7968 35.1481 24.3962 33.2875 23.5405 30.7158L23.415 30.7264L20.1135 33.2745L20.0703 33.3942C21.8291 36.8784 25.4419 39.2724 29.6252 39.2724Z" fill="#34A853"/>
<path d="M23.6348 30.7715C23.4079 30.1079 23.2765 29.3969 23.2765 28.6623C23.2765 27.9276 23.4079 27.2167 23.6229 26.5531L23.6169 26.4118L20.2567 23.8232L20.1467 23.8751C19.4181 25.3208 19 26.9442 19 28.6623C19 30.3805 19.4181 32.0038 20.1467 33.4494L23.6348 30.7715Z" fill="#FBBC05"/>
<path d="M29.6524 22.1242C31.6665 22.1242 33.0251 22.9893 33.7998 23.7123L36.827 20.7732C34.9678 19.0548 32.5484 18 29.6524 18C25.4572 18 21.8342 20.3939 20.0703 23.8782L23.5384 26.5566C24.4085 23.9849 26.8159 22.1242 29.6524 22.1242Z" fill="#EB4335"/>
</svg>
