<svg width="56" height="56" viewBox="0 0 56 56" fill="none" xmlns="http://www.w3.org/2000/svg">
<circle cx="28" cy="28" r="28" fill="#FEE500"/>
<path d="M28 20C29.9888 20 31.8283 20.3429 33.5184 21.0286C35.2085 21.7143 36.5447 22.6467 37.5268 23.8258C38.5089 25.0049 39 26.291 39 27.6842C39 29.0774 38.5089 30.3654 37.5268 31.5481C36.5447 32.7309 35.2106 33.6651 33.5245 34.3508C31.8385 35.0365 29.997 35.3794 28 35.3794C27.3698 35.3794 26.7191 35.3394 26.048 35.2596C23.1343 37.0519 21.5833 37.9589 21.3951 37.9806C21.3051 38.0097 21.2191 38.006 21.1373 37.9698C21.1045 37.948 21.08 37.919 21.0636 37.8827C21.0472 37.8464 21.0391 37.8138 21.0391 37.7847V37.7412C21.0882 37.4582 21.4606 36.2791 22.1563 34.2039C20.5766 33.5073 19.3224 32.5839 18.3934 31.4338C17.4645 30.2837 17 29.0339 17 27.6842C17 26.291 17.4911 25.0049 18.4732 23.8258C19.4554 22.6467 20.7915 21.7143 22.4816 21.0286C24.1717 20.3429 26.0112 20 28 20Z" fill="#181600"/>
</svg>
