<svg width="65" height="25" viewBox="0 0 65 25" fill="none" xmlns="http://www.w3.org/2000/svg">
<path fill-rule="evenodd" clip-rule="evenodd" d="M19 7C19 4.23858 21.2386 2 24 2C26.7614 2 29 4.23858 29 7C29 9.76142 26.7614 12 24 12C21.2386 12 19 9.76142 19 7ZM24 12H29V14H19V12H24ZM21 7C21 5.34315 22.3431 4 24 4C25.6569 4 27 5.34315 27 7C27 8.65685 25.6569 10 24 10C22.3431 10 21 8.65685 21 7ZM12 12H14H17V14H14V25H12V12ZM43 12H45H48V14H45V25H43V12ZM36 15C33.2386 15 31 17.2386 31 20C31 22.7614 33.2386 25 36 25C38.7614 25 41 22.7614 41 20C41 17.2386 38.7614 15 36 15ZM36 17C34.3431 17 33 18.3431 33 20C33 21.6569 34.3431 23 36 23C37.6569 23 39 21.6569 39 20C39 18.3431 37.6569 17 36 17ZM10 15H0V25H10V15ZM8 17H2V23H8V17ZM19 15H29V25H19V15ZM21 23V17H27V23H21ZM61 12H63V25H61V12ZM49 20C49 17.2386 51.2386 15 54 15C56.7614 15 59 17.2386 59 20C59 22.7614 56.7614 25 54 25C51.2386 25 49 22.7614 49 20ZM51 20C51 18.3431 52.3431 17 54 17C55.6569 17 57 18.3431 57 20C57 21.6569 55.6569 23 54 23C52.3431 23 51 21.6569 51 20Z" fill="#A9A684"/>
</svg>
