<svg width="33" height="32" viewBox="0 0 33 32" fill="none" xmlns="http://www.w3.org/2000/svg">
<rect x="0.5" width="32" height="32" rx="16" fill="#FFF0CC"/>
<mask id="mask0_40190_1898" style="mask-type:alpha" maskUnits="userSpaceOnUse" x="4" y="4" width="25" height="24">
<rect x="4.5" y="4" width="24" height="24" fill="#D9D9D9"/>
</mask>
<g mask="url(#mask0_40190_1898)">
<path d="M14 20C12.1833 20 10.6458 19.3708 9.3875 18.1125C8.12917 16.8542 7.5 15.3167 7.5 13.5C7.5 11.6833 8.12917 10.1458 9.3875 8.8875C10.6458 7.62917 12.1833 7 14 7C15.8167 7 17.3542 7.62917 18.6125 8.8875C19.8708 10.1458 20.5 11.6833 20.5 13.5C20.5 14.2333 20.3833 14.925 20.15 15.575C19.9167 16.225 19.6 16.8 19.2 17.3L24.8 22.9C24.9833 23.0833 25.075 23.3167 25.075 23.6C25.075 23.8833 24.9833 24.1167 24.8 24.3C24.6167 24.4833 24.3833 24.575 24.1 24.575C23.8167 24.575 23.5833 24.4833 23.4 24.3L17.8 18.7C17.3 19.1 16.725 19.4167 16.075 19.65C15.425 19.8833 14.7333 20 14 20ZM14 18C15.25 18 16.3125 17.5625 17.1875 16.6875C18.0625 15.8125 18.5 14.75 18.5 13.5C18.5 12.25 18.0625 11.1875 17.1875 10.3125C16.3125 9.4375 15.25 9 14 9C12.75 9 11.6875 9.4375 10.8125 10.3125C9.9375 11.1875 9.5 12.25 9.5 13.5C9.5 14.75 9.9375 15.8125 10.8125 16.6875C11.6875 17.5625 12.75 18 14 18Z" fill="#FFB200"/>
</g>
</svg>
