<svg width="33" height="32" viewBox="0 0 33 32" fill="none" xmlns="http://www.w3.org/2000/svg">
<rect x="0.5" width="32" height="32" rx="16" fill="#FFF0CC"/>
<mask id="mask0_40190_2860" style="mask-type:alpha" maskUnits="userSpaceOnUse" x="4" y="4" width="25" height="24">
<rect x="4.5" y="4" width="24" height="24" fill="#D9D9D9"/>
</mask>
<g mask="url(#mask0_40190_2860)">
<path d="M19.0998 12.075C19.0998 11.3583 18.8623 10.7833 18.3873 10.35C17.9123 9.91667 17.2831 9.7 16.4998 9.7C16.0165 9.7 15.579 9.80417 15.1873 10.0125C14.7956 10.2208 14.4581 10.525 14.1748 10.925C13.9081 11.3083 13.5456 11.5292 13.0873 11.5875C12.629 11.6458 12.2331 11.525 11.8998 11.225C11.6665 11.0083 11.5373 10.7417 11.5123 10.425C11.4873 10.1083 11.5665 9.80833 11.7498 9.525C12.2831 8.725 12.9623 8.10417 13.7873 7.6625C14.6123 7.22083 15.5165 7 16.4998 7C18.1165 7 19.429 7.45833 20.4373 8.375C21.4456 9.29167 21.9498 10.4917 21.9498 11.975C21.9498 12.725 21.7915 13.4 21.4748 14C21.1581 14.6 20.5748 15.3083 19.7248 16.125C19.1081 16.7083 18.6915 17.1625 18.4748 17.4875C18.2581 17.8125 18.1165 18.1833 18.0498 18.6C17.9831 19 17.8123 19.3333 17.5373 19.6C17.2623 19.8667 16.9331 20 16.5498 20C16.1665 20 15.8373 19.8708 15.5623 19.6125C15.2873 19.3542 15.1498 19.0333 15.1498 18.65C15.1498 18 15.2915 17.4042 15.5748 16.8625C15.8581 16.3208 16.3331 15.75 16.9998 15.15C17.8498 14.4 18.4123 13.8208 18.6873 13.4125C18.9623 13.0042 19.0998 12.5583 19.0998 12.075ZM16.4998 26C15.9498 26 15.479 25.8042 15.0873 25.4125C14.6956 25.0208 14.4998 24.55 14.4998 24C14.4998 23.45 14.6956 22.9792 15.0873 22.5875C15.479 22.1958 15.9498 22 16.4998 22C17.0498 22 17.5206 22.1958 17.9123 22.5875C18.304 22.9792 18.4998 23.45 18.4998 24C18.4998 24.55 18.304 25.0208 17.9123 25.4125C17.5206 25.8042 17.0498 26 16.4998 26Z" fill="#FFB200"/>
</g>
</svg>
